<svg width="22" height="22" viewBox="0 0 100 100" fill="none" xmlns="http://www.w3.org/2000/svg">
    <g filter="url(#filter0_di_8_222)">
        <rect x="20" y="10" width="60" height="80" rx="5" fill="#FEFEFE" />
        <rect x="19.5" y="9.5" width="61" height="81" rx="5.5" stroke="#A0D2DB" />
    </g>
    <line x1="25.5" y1="19.5" x2="74.5" y2="19.5" stroke="#2B2B2B" stroke-linecap="round" />
    <line x1="25.5" y1="29.5" x2="74.5" y2="29.5" stroke="#2B2B2B" stroke-linecap="round" />
    <line x1="25.5" y1="39.5" x2="74.5" y2="39.5" stroke="#2B2B2B" stroke-linecap="round" />
    <line x1="25.5" y1="49.5" x2="74.5" y2="49.5" stroke="#2B2B2B" stroke-linecap="round" />
    <line x1="25.5" y1="59.5" x2="74.5" y2="59.5" stroke="#2B2B2B" stroke-linecap="round" />
    <line x1="25.5" y1="69.5" x2="74.5" y2="69.5" stroke="#2B2B2B" stroke-linecap="round" />
    <line x1="25.5" y1="79.5" x2="74.5" y2="79.5" stroke="#2B2B2B" stroke-linecap="round" />
    <path
        d="M56.07 46.83L54 44.71C53.5547 44.2868 52.9931 44.0063 52.3872 43.9047C51.7813 43.8032 51.1589 43.8851 50.6 44.14L49.7 43.24C50.7605 41.8229 51.2449 40.0567 51.0555 38.2968C50.8662 36.537 50.0172 34.9142 48.6794 33.7552C47.3417 32.5962 45.6145 31.987 43.8457 32.0502C42.0768 32.1134 40.3975 32.8444 39.146 34.096C37.8944 35.3476 37.1634 37.0268 37.1002 38.7957C37.0369 40.5645 37.6462 42.2917 38.8052 43.6294C39.9642 44.9672 41.587 45.8162 43.3468 46.0055C45.1067 46.1949 46.8729 45.7106 48.29 44.65L49.18 45.54C48.8951 46.0996 48.793 46.7346 48.8881 47.3553C48.9831 47.9761 49.2706 48.5513 49.71 49L51.83 51.12C52.3925 51.6818 53.155 51.9974 53.95 51.9974C54.745 51.9974 55.5075 51.6818 56.07 51.12C56.3557 50.8406 56.5828 50.5069 56.7378 50.1386C56.8928 49.7702 56.9726 49.3746 56.9726 48.975C56.9726 48.5754 56.8928 48.1798 56.7378 47.8114C56.5828 47.4431 56.3557 47.1094 56.07 46.83ZM47.59 42.59C46.8902 43.288 45.9993 43.7629 45.0297 43.9549C44.0602 44.1468 43.0555 44.047 42.1426 43.6682C41.2297 43.2894 40.4496 42.6485 39.9007 41.8265C39.3519 41.0046 39.0589 40.0384 39.0589 39.05C39.0589 38.0616 39.3519 37.0954 39.9007 36.2735C40.4496 35.4515 41.2297 34.8106 42.1426 34.4318C43.0555 34.053 44.0602 33.9533 45.0297 34.1452C45.9993 34.3371 46.8902 34.812 47.59 35.51C48.0556 35.9745 48.4251 36.5262 48.6771 37.1337C48.9292 37.7411 49.0589 38.3923 49.0589 39.05C49.0589 39.7077 48.9292 40.3589 48.6771 40.9663C48.4251 41.5738 48.0556 42.1255 47.59 42.59ZM54.66 49.66C54.567 49.7537 54.4564 49.8281 54.3346 49.8789C54.2127 49.9297 54.082 49.9558 53.95 49.9558C53.818 49.9558 53.6873 49.9297 53.5654 49.8789C53.4436 49.8281 53.333 49.7537 53.24 49.66L51.12 47.54C51.0263 47.447 50.9519 47.3364 50.9011 47.2146C50.8503 47.0927 50.8242 46.962 50.8242 46.83C50.8242 46.698 50.8503 46.5673 50.9011 46.4454C50.9519 46.3236 51.0263 46.213 51.12 46.12C51.213 46.0263 51.3236 45.9519 51.4454 45.9011C51.5673 45.8503 51.698 45.8242 51.83 45.8242C51.962 45.8242 52.0927 45.8503 52.2146 45.9011C52.3364 45.9519 52.447 46.0263 52.54 46.12L54.66 48.24C54.7537 48.333 54.8281 48.4436 54.8789 48.5654C54.9296 48.6873 54.9558 48.818 54.9558 48.95C54.9558 49.082 54.9296 49.2127 54.8789 49.3346C54.8281 49.4564 54.7537 49.567 54.66 49.66Z"
        fill="black" />
    <defs>
        <filter id="filter0_di_8_222" x="15" y="9" width="70" height="90" filterUnits="userSpaceOnUse"
            color-interpolation-filters="sRGB">
            <feFlood flood-opacity="0" result="BackgroundImageFix" />
            <feColorMatrix in="SourceAlpha" type="matrix" values="0 0 0 0 0 0 0 0 0 0 0 0 0 0 0 0 0 0 127 0"
                result="hardAlpha" />
            <feOffset dy="4" />
            <feGaussianBlur stdDeviation="2" />
            <feComposite in2="hardAlpha" operator="out" />
            <feColorMatrix type="matrix" values="0 0 0 0 0 0 0 0 0 0 0 0 0 0 0 0 0 0 0.25 0" />
            <feBlend mode="normal" in2="BackgroundImageFix" result="effect1_dropShadow_8_222" />
            <feBlend mode="normal" in="SourceGraphic" in2="effect1_dropShadow_8_222" result="shape" />
            <feColorMatrix in="SourceAlpha" type="matrix" values="0 0 0 0 0 0 0 0 0 0 0 0 0 0 0 0 0 0 127 0"
                result="hardAlpha" />
            <feOffset dy="2" />
            <feGaussianBlur stdDeviation="2" />
            <feComposite in2="hardAlpha" operator="arithmetic" k2="-1" k3="1" />
            <feColorMatrix type="matrix" values="0 0 0 0 0.723976 0 0 0 0 0.924281 0 0 0 0 0.929167 0 0 0 0.75 0" />
            <feBlend mode="normal" in2="shape" result="effect2_innerShadow_8_222" />
        </filter>
    </defs>
</svg>