<svg width="25" height="25" viewBox="0 0 25 20" fill="none" xmlns="http://www.w3.org/2000/svg">
    <path
        d="M16.37 13.29C16.2479 13.2414 16.1174 13.2173 15.9859 13.2192C15.8545 13.221 15.7247 13.2487 15.604 13.3007C15.4833 13.3527 15.374 13.428 15.2824 13.5223C15.1908 13.6165 15.1186 13.7279 15.07 13.85C15.0214 13.9721 14.9974 14.1026 14.9992 14.234C15.001 14.3655 15.0288 14.4952 15.0808 14.616C15.1328 14.7367 15.208 14.846 15.3023 14.9376C15.3965 15.0292 15.5079 15.1014 15.63 15.15C17.09 15.73 18 16.63 18 17.5C18 18.92 15.54 20.5 12 20.5C8.46 20.5 6 18.92 6 17.5C6 16.63 6.91 15.73 8.37 15.15C8.61665 15.0519 8.81422 14.8598 8.91924 14.616C9.02426 14.3722 9.02813 14.0966 8.93 13.85C8.83187 13.6033 8.63978 13.4058 8.39598 13.3007C8.15218 13.1957 7.87665 13.1919 7.63 13.29C5.36 14.19 4 15.76 4 17.5C4 20.3 7.51 22.5 12 22.5C16.49 22.5 20 20.3 20 17.5C20 15.76 18.64 14.19 16.37 13.29ZM11 10.36V17.5C11 17.7652 11.1054 18.0196 11.2929 18.2071C11.4804 18.3946 11.7348 18.5 12 18.5C12.2652 18.5 12.5196 18.3946 12.7071 18.2071C12.8946 18.0196 13 17.7652 13 17.5V10.36C13.9427 10.1166 14.7642 9.53775 15.3106 8.73198C15.857 7.9262 16.0908 6.9488 15.9681 5.98298C15.8454 5.01717 15.3747 4.12925 14.6442 3.48566C13.9137 2.84207 12.9736 2.487 12 2.487C11.0264 2.487 10.0863 2.84207 9.35577 3.48566C8.62526 4.12925 8.15456 5.01717 8.03188 5.98298C7.90921 6.9488 8.14299 7.9262 8.6894 8.73198C9.23581 9.53775 10.0573 10.1166 11 10.36ZM12 4.49998C12.3956 4.49998 12.7822 4.61728 13.1111 4.83704C13.44 5.05681 13.6964 5.36916 13.8478 5.73462C13.9991 6.10007 14.0387 6.5022 13.9616 6.89016C13.8844 7.27813 13.6939 7.63449 13.4142 7.9142C13.1345 8.1939 12.7781 8.38438 12.3902 8.46155C12.0022 8.53872 11.6001 8.49912 11.2346 8.34774C10.8692 8.19637 10.5568 7.94002 10.3371 7.61112C10.1173 7.28222 10 6.89555 10 6.49998C10 5.96955 10.2107 5.46084 10.5858 5.08577C10.9609 4.7107 11.4696 4.49998 12 4.49998Z"
        fill="#594157" />
</svg>